<?xml version="1.0" standalone="no"?>
<!DOCTYPE svg PUBLIC "-//W3C//DTD SVG 20010904//EN"
 "http://www.w3.org/TR/2001/REC-SVG-20010904/DTD/svg10.dtd">
<svg version="1.0" xmlns="http://www.w3.org/2000/svg"
 width="527.000000pt" height="527.000000pt" viewBox="0 0 527.000000 527.000000"
 preserveAspectRatio="xMidYMid meet">
<metadata>
Created by potrace 1.14, written by Peter Selinger 2001-2017
</metadata>
<g transform="translate(0.000000,527.000000) scale(0.100000,-0.100000)"
fill="#000000" stroke="none">
<path d="M1560 3801 c0 -3 -13 -12 -29 -19 -30 -13 -30 -13 -19 -89 1 -7 5
-13 10 -13 4 0 8 -7 8 -16 0 -8 17 -41 38 -72 53 -82 61 -95 69 -112 4 -8 22
-42 41 -75 36 -63 67 -117 98 -175 10 -19 22 -37 25 -40 4 -3 9 -16 10 -30 4
-22 -7 -32 -91 -83 -52 -32 -97 -61 -100 -65 -3 -4 -21 -18 -40 -32 -43 -30
-78 -61 -138 -120 -25 -25 -50 -44 -55 -42 -4 1 -6 -1 -3 -6 3 -5 -3 -15 -12
-23 -9 -8 -33 -34 -52 -58 -19 -24 -43 -51 -52 -60 -10 -8 -18 -21 -18 -28 0
-7 -5 -13 -10 -13 -6 0 -15 -11 -20 -25 -5 -14 -14 -25 -20 -25 -5 0 -10 -6
-10 -14 0 -7 -10 -24 -22 -38 -13 -14 -24 -31 -26 -38 -1 -7 -14 -28 -29 -46
-14 -19 -22 -34 -18 -34 3 0 -1 -7 -9 -16 -9 -8 -16 -22 -16 -30 0 -8 -5 -14
-11 -14 -5 0 -7 -4 -4 -10 3 -5 1 -10 -5 -10 -6 0 -9 -4 -5 -9 3 -5 -1 -15 -8
-23 -18 -18 -47 -94 -40 -102 4 -3 1 -6 -5 -6 -7 0 -12 -5 -12 -11 0 -5 -9
-30 -20 -55 -33 -72 -43 -98 -45 -119 -1 -11 -9 -37 -18 -58 -9 -21 -16 -41
-16 -45 1 -4 0 -9 -1 -12 -16 -42 -30 -210 -18 -210 5 0 7 -4 3 -9 -3 -5 7
-18 22 -29 24 -17 41 -19 123 -16 52 3 101 4 108 4 19 0 46 0 62 1 8 0 27 -2
43 -5 15 -2 27 -2 27 2 0 4 199 8 443 9 647 3 777 6 770 17 -4 5 -1 6 7 1 15
-9 290 -13 295 -5 3 5 60 5 60 0 0 -1 117 -3 260 -6 247 -4 370 -8 568 -18 62
-3 87 -1 87 7 0 8 3 9 8 1 4 -5 47 -10 100 -11 51 0 96 -3 99 -7 3 -3 12 -1
20 5 7 6 13 8 13 3 0 -5 127 -8 283 -7 312 3 336 4 356 17 10 6 12 6 7 -2 -4
-7 6 -6 26 3 18 8 32 19 31 25 -2 5 1 10 6 10 20 0 0 170 -23 199 -9 12 -8 13
2 7 10 -6 9 0 -2 23 -9 17 -14 31 -11 31 3 0 1 9 -5 21 -7 11 -14 33 -16 47
-7 38 -26 94 -39 111 -8 12 -7 13 5 6 13 -8 13 -6 2 8 -8 9 -11 21 -7 27 3 5
1 10 -4 10 -6 0 -11 7 -11 15 0 8 -4 15 -10 15 -5 0 -7 7 -4 15 4 8 1 15 -5
15 -6 0 -10 3 -9 8 2 6 -21 64 -43 104 -5 10 -9 24 -9 32 0 8 -3 16 -7 18 -9
4 -52 70 -73 113 -8 17 -17 32 -20 35 -3 3 -21 30 -40 60 -35 56 -41 63 -125
160 -54 62 -195 204 -195 196 0 -3 -12 6 -27 20 -16 14 -35 32 -44 40 -9 8
-21 14 -27 14 -5 0 -12 3 -14 8 -1 4 -32 23 -68 41 -36 19 -67 37 -70 40 -3 3
-17 12 -32 20 l-26 13 23 43 c14 23 21 45 18 49 -4 3 -1 6 6 6 7 0 17 14 22
30 6 17 15 30 19 30 5 0 11 14 15 30 4 17 10 30 15 30 4 0 13 12 19 28 15 35
36 71 50 85 6 6 11 19 11 29 0 10 4 18 9 18 9 0 43 64 41 76 -1 4 2 10 7 13 5
3 21 28 36 55 34 61 36 108 4 125 -30 16 -77 17 -104 3 -22 -12 -75 -89 -108
-157 -11 -22 -26 -46 -33 -53 -7 -8 -10 -18 -7 -23 4 -5 2 -9 -2 -9 -5 0 -24
-26 -43 -57 -19 -32 -38 -61 -43 -64 -5 -3 -9 -10 -9 -15 -1 -11 -50 -87 -61
-95 -5 -3 -8 -8 -7 -10 3 -9 -14 -43 -30 -59 -18 -18 -23 -17 -100 18 -30 15
-58 25 -62 24 -5 -1 -8 2 -8 7 0 7 -96 39 -140 47 -8 1 -26 5 -40 8 -55 11
-202 35 -265 42 -37 4 -274 4 -335 0 -43 -3 -138 -15 -170 -21 -13 -3 -184
-39 -232 -50 -9 -2 -30 -11 -47 -19 -17 -9 -31 -14 -31 -11 0 6 -88 -40 -133
-70 -24 -15 -26 -15 -44 12 -10 15 -30 52 -43 80 -14 29 -28 53 -32 53 -5 0
-8 7 -8 15 0 8 -3 15 -8 15 -4 0 -13 15 -21 33 -8 17 -17 34 -21 37 -8 6 -81
132 -128 220 -19 36 -44 74 -55 84 -19 18 -97 40 -97 27z m435 -1294 c10 -2
24 -16 30 -31 6 -14 15 -23 20 -19 4 5 6 1 2 -8 -3 -9 -1 -21 5 -27 18 -18 8
-135 -13 -148 -5 -3 -7 -10 -4 -15 4 -5 2 -9 -3 -9 -6 0 -19 -15 -31 -32 -11
-18 -21 -26 -21 -18 0 12 -2 12 -9 2 -10 -16 -101 -26 -101 -11 0 6 -4 8 -9 5
-14 -9 -70 48 -85 86 -16 41 -14 119 5 156 20 38 41 62 51 56 4 -3 8 0 8 7 0
6 8 9 20 6 11 -3 20 -2 20 2 0 7 77 6 115 -2z m1617 -2 c5 -6 8 -6 8 1 0 11 8
11 80 -1 48 -8 78 -47 86 -113 7 -60 -8 -130 -32 -139 -7 -3 -11 -9 -8 -14 3
-5 -2 -9 -11 -9 -9 0 -14 -4 -10 -9 5 -9 -62 -37 -77 -33 -5 1 -8 -2 -8 -6 0
-4 -16 -6 -36 -4 -19 2 -33 7 -30 10 3 3 -4 13 -15 23 -11 10 -22 24 -23 32
-1 8 -8 22 -15 31 -19 23 -17 142 3 189 15 33 25 42 49 38 4 0 7 4 7 9 0 12
22 9 32 -5z"/>
</g>
</svg>
