<?xml version="1.0" standalone="no"?>
<!DOCTYPE svg PUBLIC "-//W3C//DTD SVG 20010904//EN"
 "http://www.w3.org/TR/2001/REC-SVG-20010904/DTD/svg10.dtd">
<svg version="1.0" xmlns="http://www.w3.org/2000/svg"
 width="500.000000pt" height="500.000000pt" viewBox="0 0 500.000000 500.000000"
 preserveAspectRatio="xMidYMid meet">
<metadata>
Created by potrace 1.14, written by Peter Selinger 2001-2017
</metadata>
<g transform="translate(0.000000,500.000000) scale(0.100000,-0.100000)"
fill="#000000" stroke="none">
<path d="M1370 3729 c0 -6 -3 -8 -8 -5 -4 2 -15 -2 -25 -9 -22 -16 -33 -65
-15 -65 9 0 8 -3 -2 -10 -8 -5 -10 -10 -4 -10 6 0 11 -7 12 -15 1 -8 3 -22 4
-30 1 -8 5 -15 10 -15 4 0 8 -7 8 -15 0 -8 5 -15 10 -15 6 0 10 -6 10 -14 0
-8 3 -16 8 -18 7 -3 72 -95 72 -103 0 -3 16 -29 35 -60 20 -30 33 -55 30 -55
-3 0 3 -10 15 -22 11 -12 20 -28 20 -35 0 -7 4 -13 10 -13 5 0 12 -11 16 -25
3 -14 10 -25 16 -25 5 0 7 -4 4 -9 -3 -5 1 -14 9 -21 8 -7 12 -16 9 -21 -3 -5
0 -9 6 -9 6 0 8 -5 5 -10 -4 -6 -1 -21 7 -33 15 -24 18 -47 6 -47 -4 0 -19
-11 -32 -25 -13 -13 -36 -27 -50 -31 -14 -3 -26 -10 -26 -16 0 -5 -4 -7 -9 -3
-6 3 -14 -3 -20 -12 -5 -10 -13 -17 -18 -17 -11 2 -93 -57 -93 -67 0 -4 -9
-11 -20 -14 -11 -3 -20 -13 -20 -21 0 -8 -4 -13 -9 -9 -5 3 -22 -10 -37 -30
-14 -19 -33 -35 -40 -35 -8 0 -13 -3 -11 -8 1 -4 -16 -25 -38 -47 -21 -22 -38
-41 -37 -42 1 -2 0 -2 -2 0 -2 1 -20 -18 -41 -43 -21 -25 -41 -47 -44 -50 -4
-3 -10 -13 -14 -23 -4 -10 -11 -15 -17 -12 -6 4 -7 -1 -3 -11 4 -12 3 -15 -5
-10 -7 4 -12 1 -12 -7 0 -8 -7 -18 -16 -21 -8 -3 -13 -10 -10 -14 3 -5 -4 -15
-15 -23 -11 -8 -27 -28 -35 -45 -8 -17 -24 -41 -34 -52 -11 -11 -22 -32 -26
-46 -3 -14 -9 -24 -13 -22 -3 2 -15 -8 -25 -22 -12 -16 -14 -23 -5 -18 8 4 6
1 -3 -7 -10 -8 -15 -17 -11 -20 3 -4 1 -7 -5 -7 -7 0 -12 -9 -12 -20 0 -11 -5
-20 -11 -20 -5 0 -7 -4 -4 -10 3 -5 1 -10 -6 -10 -7 0 -9 -3 -6 -7 4 -3 2 -12
-4 -20 -6 -7 -8 -13 -4 -13 5 0 0 -10 -11 -22 -13 -14 -14 -19 -4 -14 8 4 6 0
-4 -8 -11 -9 -14 -16 -8 -16 7 0 12 -5 12 -11 0 -5 -4 -7 -10 -4 -5 3 -11 -2
-12 -12 0 -10 -2 -25 -2 -33 -1 -8 -7 -14 -14 -13 -6 2 -9 -4 -6 -12 4 -8 1
-15 -6 -15 -6 0 -9 -4 -5 -9 3 -5 -2 -17 -11 -25 -8 -9 -12 -16 -8 -16 3 0 1
-7 -6 -15 -7 -8 -10 -15 -6 -15 3 0 0 -16 -9 -35 -10 -25 -11 -34 -2 -28 9 5
9 3 1 -8 -7 -8 -15 -39 -18 -69 -4 -30 -11 -73 -16 -94 -5 -22 -7 -44 -4 -48
3 -4 1 -8 -3 -8 -5 0 -9 -13 -8 -30 0 -16 3 -30 7 -30 5 0 8 -5 8 -11 0 -11
25 -39 35 -39 3 0 3 6 -1 13 -6 9 -4 9 7 1 11 -9 64 -12 64 -4 0 1 26 2 58 3
31 1 57 -1 57 -4 0 -6 27 -5 55 1 6 1 12 2 15 0 12 -4 78 -5 75 0 -2 3 19 6
46 6 33 1 46 -2 42 -10 -4 -6 1 -5 10 3 9 7 17 10 17 6 0 -4 8 -1 17 6 12 10
15 10 9 1 -6 -9 2 -11 33 -7 22 2 43 0 46 -6 4 -6 11 -7 18 0 14 11 77 9 96
-3 9 -6 12 -5 8 1 -4 6 4 11 18 11 14 0 25 -6 25 -12 0 -7 3 -8 8 0 9 13 222
13 222 -1 0 -7 3 -7 8 0 4 6 21 10 37 10 17 0 33 -4 37 -10 5 -7 8 -7 8 0 0 6
31 10 72 10 40 0 76 -4 80 -10 5 -6 8 -5 8 3 0 7 4 11 8 8 11 -6 63 -7 175 -4
53 2 87 -1 87 -7 0 -5 4 -4 9 4 6 9 11 10 15 2 4 -6 12 -9 17 -5 16 10 169 10
169 0 0 -5 7 -2 17 5 9 8 17 14 17 13 14 -11 46 -22 46 -15 0 10 19 9 37 -2 6
-4 14 -3 18 2 3 5 15 7 28 5 26 -7 97 -5 109 2 4 3 8 0 8 -7 0 -9 3 -10 11 -2
6 6 23 8 43 3 19 -4 41 -3 50 2 10 6 16 5 16 -2 0 -7 6 -8 18 -2 9 5 28 6 42
2 14 -4 33 -3 43 2 11 6 17 5 17 -2 0 -6 5 -8 11 -5 16 10 59 13 59 5 0 -10
26 -7 36 3 4 4 13 2 21 -4 8 -8 13 -8 13 -1 0 11 18 11 35 0 6 -4 17 -3 25 2
8 5 21 5 31 0 9 -5 19 -7 22 -4 10 10 117 9 120 -1 2 -6 10 -5 19 3 9 7 19 9
21 5 7 -10 48 -10 65 1 7 4 12 3 12 -1 0 -5 90 -8 200 -8 127 0 200 -4 200
-10 0 -7 3 -7 8 0 8 12 152 14 152 2 0 -5 5 -5 11 -1 14 8 245 8 259 -1 5 -3
10 -1 10 6 0 7 5 8 13 3 6 -5 26 -9 42 -8 17 1 36 -4 44 -10 11 -8 13 -8 8 0
-4 7 0 15 9 18 8 3 13 2 10 -3 -3 -4 48 -7 114 -6 75 1 117 -2 113 -8 -4 -6
-1 -7 8 -2 7 5 23 10 36 11 42 5 53 26 47 95 -3 35 -6 74 -7 87 0 12 -4 22 -7
22 -4 0 -6 14 -5 30 1 17 -2 30 -6 30 -4 0 -5 9 -2 20 3 11 1 20 -5 20 -6 0
-9 8 -7 18 1 9 -2 27 -6 40 -5 13 -11 37 -14 54 -3 17 -9 36 -13 42 -3 6 -7
16 -8 21 -1 6 -8 24 -15 40 -7 17 -12 33 -11 38 1 4 -3 7 -8 7 -5 0 -9 3 -9 8
4 22 -2 42 -10 37 -6 -3 -8 4 -6 15 2 11 -1 20 -6 20 -6 0 -8 4 -4 9 3 5 -1
15 -8 23 -8 7 -12 19 -9 26 2 6 -1 12 -7 12 -6 0 -11 7 -11 15 0 8 -5 15 -12
15 -6 0 -8 3 -5 7 4 3 -1 15 -10 26 -10 11 -12 17 -5 13 11 -7 11 -4 0 13 -7
12 -16 21 -21 21 -4 0 -6 4 -3 8 2 4 -9 27 -25 51 -16 24 -26 47 -23 52 3 5
-3 9 -12 9 -10 0 -15 3 -11 6 3 4 1 12 -6 20 -30 33 -35 42 -30 48 4 3 1 6 -5
6 -7 0 -12 5 -12 10 0 6 -8 19 -17 30 -10 10 -28 31 -40 44 -13 14 -23 27 -23
30 0 10 -59 66 -70 66 -6 0 -9 3 -7 8 5 8 -50 62 -56 55 -3 -2 -8 5 -12 16 -3
12 -9 21 -13 21 -4 0 -31 23 -61 50 -30 28 -58 50 -62 50 -5 0 -9 5 -9 10 0 6
-7 10 -16 10 -8 0 -12 5 -9 10 3 6 -3 10 -13 10 -11 0 -22 6 -25 13 -3 6 -22
21 -43 32 -22 10 -45 24 -53 29 -7 6 -20 11 -29 12 -8 2 -19 10 -24 18 -5 9
-15 16 -22 16 -21 0 -26 25 -11 48 8 10 11 22 8 26 -3 3 -1 6 5 6 7 0 12 6 12
14 0 8 14 45 32 83 18 37 31 71 30 76 -1 4 2 7 8 7 5 0 16 16 24 35 8 19 20
35 26 35 6 0 8 5 5 10 -3 6 -1 10 5 10 7 0 9 7 6 16 -3 8 -2 13 2 10 5 -3 18
15 30 39 12 25 26 45 32 45 5 0 10 3 9 8 -2 15 14 52 23 52 11 0 53 90 50 108
-2 6 2 12 7 12 17 0 -9 59 -31 71 -44 23 -128 -1 -128 -37 0 -8 -4 -14 -9 -14
-5 0 -25 -31 -44 -69 -19 -38 -38 -67 -41 -64 -6 6 -10 -12 -7 -29 0 -5 -4 -8
-10 -8 -5 0 -8 -4 -5 -8 3 -5 -4 -18 -14 -30 -11 -12 -20 -26 -20 -32 0 -6 -5
-16 -10 -23 -9 -10 -65 -102 -120 -197 -41 -69 -76 -78 -165 -40 -24 10 -46
16 -49 13 -3 -4 -6 0 -6 7 0 7 -3 10 -7 7 -3 -4 -11 -3 -18 3 -9 8 -64 23
-159 45 -10 2 -37 7 -60 9 -22 3 -52 8 -66 11 -14 3 -40 6 -57 7 -18 1 -33 5
-33 10 0 5 -6 6 -12 2 -16 -10 -48 -13 -52 -5 -2 3 -39 6 -83 6 -43 0 -81 5
-85 10 -5 7 -8 7 -8 0 0 -6 -39 -10 -98 -9 -53 1 -105 -3 -114 -8 -12 -6 -18
-5 -18 2 0 6 -5 8 -12 4 -6 -4 -30 -8 -52 -10 -23 -1 -41 -3 -41 -4 0 -1 -15
-3 -34 -6 -30 -4 -59 -9 -96 -17 -5 -2 -16 -7 -24 -11 -10 -7 -12 -5 -6 3 6
10 3 11 -12 3 -11 -6 -30 -12 -44 -14 -13 -2 -28 -6 -34 -9 -9 -6 -61 -21 -77
-23 -3 -1 -10 -4 -14 -8 -4 -5 -14 -8 -23 -8 -9 0 -29 -7 -45 -15 -15 -8 -32
-12 -37 -9 -5 3 -9 0 -9 -6 0 -7 -6 -10 -14 -7 -8 3 -17 -1 -20 -9 -3 -8 -12
-14 -21 -14 -8 0 -15 -5 -15 -10 0 -19 -36 12 -50 43 -7 16 -21 38 -32 49 -10
10 -18 25 -18 33 0 8 -3 15 -8 15 -4 0 -15 18 -25 40 -9 22 -22 40 -28 40 -5
0 -8 4 -4 9 3 5 -1 15 -8 23 -7 7 -13 16 -13 20 1 4 -6 15 -14 25 -8 10 -22
32 -30 48 -8 17 -23 39 -32 49 -10 11 -18 25 -18 32 0 6 -10 24 -22 40 -13 15
-17 24 -10 20 11 -7 11 -4 0 13 -7 12 -16 21 -20 21 -5 0 -8 7 -8 15 0 8 -5
15 -10 15 -5 0 -9 3 -9 8 3 20 -4 29 -33 44 -48 24 -68 29 -68 17z m404 -1358
c4 10 8 11 11 3 3 -7 15 -10 25 -7 14 4 20 0 20 -11 0 -10 5 -14 11 -11 12 8
49 -32 49 -52 0 -8 5 -11 12 -7 7 4 8 3 4 -4 -4 -7 -3 -28 3 -47 5 -19 6 -37
1 -40 -4 -3 -6 -14 -3 -25 3 -11 0 -26 -6 -33 -6 -8 -8 -17 -4 -20 3 -4 1 -7
-6 -7 -7 0 -10 -4 -6 -9 3 -6 -2 -14 -11 -19 -9 -5 -15 -12 -15 -15 1 -4 -8
-16 -19 -27 -11 -11 -20 -17 -20 -14 0 4 -6 1 -13 -5 -8 -6 -17 -8 -20 -4 -4
3 -7 1 -7 -6 0 -7 -5 -9 -10 -6 -6 4 -18 1 -27 -7 -12 -9 -15 -9 -9 -1 5 9 -1
12 -23 9 -17 -2 -31 1 -31 5 0 5 -7 9 -15 9 -9 0 -18 7 -21 15 -4 8 -11 15
-18 15 -15 1 -48 48 -41 59 3 5 1 12 -3 15 -13 8 -15 128 -3 159 11 28 51 77
51 63 0 -5 11 -1 24 7 26 18 98 26 107 13 4 -4 9 -2 13 5z m1874 -13 c13 -11
15 -11 8 2 -4 8 0 6 8 -4 9 -11 16 -16 16 -11 0 5 12 -8 26 -29 18 -26 27 -53
28 -81 0 -24 5 -41 9 -38 5 3 4 -3 -2 -14 -5 -11 -11 -37 -13 -57 -1 -20 -6
-36 -10 -36 -4 0 -8 -7 -8 -15 0 -27 -45 -62 -91 -71 -24 -4 -48 -6 -54 -5 -5
2 -21 5 -35 8 -13 2 -28 10 -32 16 -4 7 -8 8 -8 3 0 -5 -13 5 -30 22 -16 18
-30 39 -30 47 0 8 -4 15 -10 15 -5 0 -10 14 -10 31 0 16 -4 28 -9 24 -6 -3 -6
6 -1 25 5 19 5 30 -1 30 -6 0 -7 5 -4 10 4 6 9 22 11 37 3 15 13 33 22 41 9 7
11 10 4 7 -11 -6 -11 -3 -1 13 7 12 17 18 21 16 4 -3 8 0 8 6 0 6 10 14 22 19
32 12 147 4 166 -11z"/>
</g>
</svg>
